name C:\Users\u0101727\Documents\MyRepositories\upper-imu-dc\OpenSim\subject0\MA\ResultsMA\grid_4nodes_9dim\angles_8.mot
datacolumns 10
datarows 28
range 825.01000000 825.28000000
endheader 
time	clav_prot	clav_elev	scapula_abduction	scapula_elevation	scapula_upward_rot	scapula_winging	plane_elv	shoulder_elv	axial_rot	
        825.01000000	        -50.00000000	          0.00000000	        -40.00000000	         -3.33333333	         60.00000000	        -20.00000000	        -90.00000000	         26.66666667	        -30.00000000	
        825.02000000	        -38.33333333	          0.00000000	        -40.00000000	         -3.33333333	         60.00000000	        -20.00000000	        -90.00000000	         26.66666667	        -30.00000000	
        825.03000000	        -26.66666667	          0.00000000	        -40.00000000	         -3.33333333	         60.00000000	        -20.00000000	        -90.00000000	         26.66666667	        -30.00000000	
        825.04000000	        -15.00000000	          0.00000000	        -40.00000000	         -3.33333333	         60.00000000	        -20.00000000	        -90.00000000	         26.66666667	        -30.00000000	
        825.05000000	        -50.00000000	         10.00000000	        -40.00000000	         -3.33333333	         60.00000000	        -20.00000000	        -90.00000000	         26.66666667	        -30.00000000	
        825.06000000	        -38.33333333	         10.00000000	        -40.00000000	         -3.33333333	         60.00000000	        -20.00000000	        -90.00000000	         26.66666667	        -30.00000000	
        825.07000000	        -26.66666667	         10.00000000	        -40.00000000	         -3.33333333	         60.00000000	        -20.00000000	        -90.00000000	         26.66666667	        -30.00000000	
        825.08000000	        -15.00000000	         10.00000000	        -40.00000000	         -3.33333333	         60.00000000	        -20.00000000	        -90.00000000	         26.66666667	        -30.00000000	
        825.09000000	        -50.00000000	         20.00000000	        -40.00000000	         -3.33333333	         60.00000000	        -20.00000000	        -90.00000000	         26.66666667	        -30.00000000	
        825.10000000	        -38.33333333	         20.00000000	        -40.00000000	         -3.33333333	         60.00000000	        -20.00000000	        -90.00000000	         26.66666667	        -30.00000000	
        825.11000000	        -26.66666667	         20.00000000	        -40.00000000	         -3.33333333	         60.00000000	        -20.00000000	        -90.00000000	         26.66666667	        -30.00000000	
        825.12000000	        -15.00000000	         20.00000000	        -40.00000000	         -3.33333333	         60.00000000	        -20.00000000	        -90.00000000	         26.66666667	        -30.00000000	
        825.13000000	        -50.00000000	        -10.00000000	        -21.66666667	         -3.33333333	         60.00000000	        -20.00000000	        -90.00000000	         26.66666667	        -30.00000000	
        825.14000000	        -38.33333333	        -10.00000000	        -21.66666667	         -3.33333333	         60.00000000	        -20.00000000	        -90.00000000	         26.66666667	        -30.00000000	
        825.15000000	        -26.66666667	        -10.00000000	        -21.66666667	         -3.33333333	         60.00000000	        -20.00000000	        -90.00000000	         26.66666667	        -30.00000000	
        825.16000000	        -15.00000000	        -10.00000000	        -21.66666667	         -3.33333333	         60.00000000	        -20.00000000	        -90.00000000	         26.66666667	        -30.00000000	
        825.17000000	        -50.00000000	          0.00000000	        -21.66666667	         -3.33333333	         60.00000000	        -20.00000000	        -90.00000000	         26.66666667	        -30.00000000	
        825.18000000	        -38.33333333	          0.00000000	        -21.66666667	         -3.33333333	         60.00000000	        -20.00000000	        -90.00000000	         26.66666667	        -30.00000000	
        825.19000000	        -26.66666667	          0.00000000	        -21.66666667	         -3.33333333	         60.00000000	        -20.00000000	        -90.00000000	         26.66666667	        -30.00000000	
        825.20000000	        -15.00000000	          0.00000000	        -21.66666667	         -3.33333333	         60.00000000	        -20.00000000	        -90.00000000	         26.66666667	        -30.00000000	
        825.21000000	        -50.00000000	         10.00000000	        -21.66666667	         -3.33333333	         60.00000000	        -20.00000000	        -90.00000000	         26.66666667	        -30.00000000	
        825.22000000	        -38.33333333	         10.00000000	        -21.66666667	         -3.33333333	         60.00000000	        -20.00000000	        -90.00000000	         26.66666667	        -30.00000000	
        825.23000000	        -26.66666667	         10.00000000	        -21.66666667	         -3.33333333	         60.00000000	        -20.00000000	        -90.00000000	         26.66666667	        -30.00000000	
        825.24000000	        -15.00000000	         10.00000000	        -21.66666667	         -3.33333333	         60.00000000	        -20.00000000	        -90.00000000	         26.66666667	        -30.00000000	
        825.25000000	        -50.00000000	         20.00000000	        -21.66666667	         -3.33333333	         60.00000000	        -20.00000000	        -90.00000000	         26.66666667	        -30.00000000	
        825.26000000	        -38.33333333	         20.00000000	        -21.66666667	         -3.33333333	         60.00000000	        -20.00000000	        -90.00000000	         26.66666667	        -30.00000000	
        825.27000000	        -26.66666667	         20.00000000	        -21.66666667	         -3.33333333	         60.00000000	        -20.00000000	        -90.00000000	         26.66666667	        -30.00000000	
        825.28000000	        -15.00000000	         20.00000000	        -21.66666667	         -3.33333333	         60.00000000	        -20.00000000	        -90.00000000	         26.66666667	        -30.00000000	
